<?xml version="1.0" standalone="no"?>
<!DOCTYPE svg PUBLIC "-//W3C//DTD SVG 20010904//EN"
 "http://www.w3.org/TR/2001/REC-SVG-20010904/DTD/svg10.dtd">
<svg version="1.0" xmlns="http://www.w3.org/2000/svg"
  viewBox="0 0 1169 280"
 preserveAspectRatio="xMidYMid meet">

<g transform="translate(0.000000,263.000000) scale(0.100000,-0.100000)"
fill="#000000" stroke="none">
<path d="M5865 2366 c-155 -31 -248 -78 -348 -177 -118 -118 -164 -253 -146
-434 14 -139 92 -262 217 -342 72 -47 159 -82 337 -138 248 -79 312 -114 347
-193 25 -56 19 -116 -18 -179 -46 -80 -141 -124 -269 -126 -155 -1 -268 42
-413 160 l-40 33 -118 -117 -117 -117 70 -65 c260 -245 704 -312 1028 -156
153 73 255 194 295 349 35 136 23 280 -32 396 -12 25 -50 73 -84 106 -82 81
-194 137 -422 210 -194 62 -273 97 -314 141 -69 73 -64 177 13 250 113 106
343 84 494 -49 l48 -42 118 124 c65 69 118 127 118 130 0 3 -27 28 -60 56 -75
66 -190 126 -304 159 -112 33 -293 42 -400 21z"/>
<path d="M8832 2349 c-115 -57 -155 -199 -88 -313 48 -82 154 -123 250 -96
195 54 211 336 24 414 -54 23 -134 20 -186 -5z"/>
<path d="M4698 2340 c-90 -27 -150 -100 -156 -191 -10 -139 82 -241 218 -241
206 0 297 245 142 384 -58 52 -133 70 -204 48z"/>
<path d="M1056 2332 c-2 -4 -59 -147 -126 -317 -67 -171 -157 -400 -200 -510
-44 -110 -153 -388 -243 -617 l-165 -418 214 0 213 0 16 57 c9 32 29 99 44
148 l27 90 435 3 434 2 44 -150 44 -150 214 0 213 0 -13 33 c-8 17 -173 438
-368 934 l-354 903 -212 0 c-116 0 -214 -4 -217 -8z m242 -524 c11 -29 77
-196 146 -371 69 -175 126 -320 126 -323 0 -2 -135 -4 -301 -4 -237 0 -300 3
-296 13 3 6 69 175 148 375 78 199 146 362 150 362 4 0 16 -24 27 -52z"/>
<path d="M2560 1406 l0 -936 195 0 195 0 2 193 3 192 274 0 275 0 80 -192 81
-193 212 0 212 0 -19 43 c-10 23 -75 163 -143 311 l-124 269 82 81 c66 66 90
98 123 166 190 397 -11 851 -433 976 -53 15 -117 18 -537 21 l-478 4 0 -935z
m902 564 c187 -52 286 -330 189 -532 -38 -82 -113 -166 -173 -196 -43 -21 -57
-22 -287 -22 l-241 0 0 380 0 380 238 0 c130 0 254 -5 274 -10z"/>
<path d="M6900 2160 l0 -180 270 0 270 0 0 -755 0 -755 195 0 195 0 0 755 0
755 270 0 270 0 0 180 0 180 -735 0 -735 0 0 -180z"/>
<path d="M9680 1405 l0 -937 428 4 c421 4 428 5 522 30 239 64 430 200 555
392 106 163 149 311 148 511 -1 190 -36 325 -124 475 -125 212 -324 359 -579
428 -94 25 -101 26 -522 30 l-428 4 0 -937z m835 560 c100 -27 184 -74 255
-145 177 -177 220 -448 107 -679 -44 -90 -159 -207 -247 -250 -110 -53 -155
-61 -362 -61 l-188 0 0 575 0 575 188 0 c137 0 204 -4 247 -15z"/>
<path d="M4560 1100 l0 -630 200 0 200 0 0 630 0 630 -200 0 -200 0 0 -630z"/>
<path d="M8730 1100 l0 -630 200 0 200 0 0 630 0 630 -200 0 -200 0 0 -630z"/>
</g>
</svg>
