<?xml version="1.0" standalone="no"?>
<!DOCTYPE svg PUBLIC "-//W3C//DTD SVG 20010904//EN"
 "http://www.w3.org/TR/2001/REC-SVG-20010904/DTD/svg10.dtd">
<svg version="1.0" xmlns="http://www.w3.org/2000/svg"
  viewBox="0 0 502 90"
 preserveAspectRatio="xMidYMid meet">

<g transform="translate(0.000000,77.000000) scale(0.100000,-0.100000)"
fill="#000000" stroke="none">
<path d="M730 757 c0 -8 12 -18 27 -22 54 -13 53 -5 53 -332 0 -182 -4 -312
-10 -323 -5 -10 -23 -21 -40 -25 -16 -4 -30 -13 -30 -21 0 -12 31 -14 180 -14
149 0 180 2 180 14 0 8 -14 17 -32 21 -60 13 -58 1 -58 345 l0 317 36 6 c91
15 138 -25 149 -127 8 -71 0 -137 -22 -179 -15 -29 -65 -57 -103 -57 -24 0
-27 -25 -4 -34 29 -11 110 -6 163 10 66 19 131 81 149 142 7 23 17 42 23 42
22 0 29 -60 29 -241 0 -176 -1 -190 -20 -209 -11 -11 -27 -20 -35 -20 -8 0
-15 -7 -15 -15 0 -13 23 -15 150 -15 121 0 150 3 150 14 0 8 -12 17 -27 21
-15 3 -31 12 -35 18 -4 7 -8 98 -8 204 0 187 1 192 22 207 32 23 50 20 80 -14
51 -59 138 -30 138 45 0 95 -120 102 -217 12 l-23 -20 0 43 0 43 -82 -7 c-46
-4 -90 -9 -99 -12 -13 -3 -19 7 -28 43 -15 57 -61 104 -128 128 -68 25 -513
36 -513 12z"/>
<path d="M1873 588 c-31 -10 -32 -13 -27 -49 14 -83 -21 -129 -97 -129 -54 0
-59 -8 -59 -101 0 -122 55 -216 152 -260 66 -30 200 -32 261 -5 104 46 161
141 161 271 1 68 -3 89 -27 137 -32 66 -82 111 -146 133 -50 17 -169 18 -218
3z m168 -44 c33 -29 49 -108 49 -234 0 -131 -18 -210 -53 -235 -12 -8 -40 -15
-63 -15 -35 0 -47 5 -68 30 -32 38 -41 95 -40 245 1 178 34 242 123 230 18 -2
42 -12 52 -21z"/>
<path d="M0 581 c0 -5 11 -12 25 -15 l25 -6 0 -205 0 -204 -27 -15 c-26 -14
-12 -15 164 -16 l191 0 4 80 c2 44 0 80 -4 80 -4 0 -16 -20 -27 -45 -30 -69
-62 -95 -114 -95 -26 0 -49 6 -56 14 -8 9 -11 73 -9 207 3 190 3 194 26 204
43 19 21 25 -88 25 -61 0 -110 -4 -110 -9z"/>
<path d="M2886 575 c-98 -35 -166 -132 -174 -249 -8 -133 43 -243 133 -285 65
-30 157 -38 226 -18 62 18 139 69 139 92 0 18 2 18 -50 0 -50 -18 -152 -20
-183 -4 -63 32 -86 72 -102 177 l-7 42 182 0 183 0 -7 52 c-19 143 -91 208
-231 207 -38 0 -87 -6 -109 -14z m129 -21 c25 -10 43 -55 46 -117 1 -31 1 -59
-2 -61 -2 -3 -45 -6 -94 -7 l-90 -2 3 39 c4 55 30 121 55 139 23 16 54 19 82
9z"/>
<path d="M3275 579 c-38 -5 -73 -13 -78 -18 -5 -5 7 -18 26 -30 19 -12 37 -31
41 -44 3 -12 6 -106 6 -209 0 -175 -1 -189 -20 -208 -11 -11 -27 -20 -35 -20
-8 0 -15 -7 -15 -15 0 -13 23 -15 145 -15 122 0 145 2 145 15 0 8 -6 15 -14
15 -8 0 -22 7 -30 16 -14 13 -16 47 -16 214 0 130 4 201 11 205 6 4 36 9 68
12 50 5 61 3 80 -16 20 -20 21 -30 21 -217 l0 -196 -30 -11 c-16 -6 -30 -17
-30 -24 0 -11 31 -13 147 -11 148 3 189 15 121 34 l-33 10 -5 224 c-3 156 -9
232 -18 247 -40 70 -193 71 -294 1 -35 -24 -38 -23 -38 17 0 35 0 35 -42 34
-24 -1 -74 -6 -113 -10z"/>
<path d="M4000 573 c-71 -25 -123 -66 -155 -125 -28 -49 -30 -61 -30 -153 0
-90 3 -105 27 -152 59 -112 188 -159 325 -118 57 17 133 68 133 90 0 18 4 18
-54 -1 -69 -24 -167 -16 -202 16 -48 44 -67 104 -67 210 -1 118 22 178 79 205
37 18 82 14 88 -8 2 -7 9 -30 15 -53 12 -45 48 -69 85 -58 80 24 74 122 -10
154 -39 15 -183 11 -234 -7z"/>
<path d="M4475 577 c-157 -61 -222 -226 -160 -408 34 -100 122 -154 250 -154
89 0 157 24 208 72 39 38 36 59 -5 36 -24 -13 -56 -18 -120 -18 -72 0 -91 3
-115 21 -42 31 -64 77 -70 144 l-6 60 178 0 178 0 -6 54 c-9 92 -55 160 -129
191 -44 18 -159 19 -203 2z m132 -32 c23 -16 47 -104 41 -147 -3 -22 -9 -23
-96 -28 l-92 -5 0 34 c0 55 21 110 53 137 33 28 63 31 94 9z"/>
<path d="M2190 570 c0 -5 13 -16 29 -24 30 -16 41 -39 173 -366 l63 -155 44 0
45 0 85 220 c115 295 110 284 142 301 51 26 33 34 -71 34 -102 0 -128 -11 -71
-31 16 -6 32 -18 36 -27 7 -17 -94 -332 -106 -332 -9 0 -109 286 -109 312 0
29 17 48 42 48 10 0 18 7 18 15 0 13 -24 15 -160 15 -97 0 -160 -4 -160 -10z"/>
<path d="M490 471 c-58 -12 -80 -29 -80 -60 0 -28 15 -41 45 -41 21 0 45 29
45 55 0 43 65 44 76 1 3 -12 4 -42 2 -67 l-3 -44 -63 -17 c-82 -22 -109 -40
-117 -78 -19 -88 77 -142 161 -91 31 19 32 19 48 0 10 -12 29 -19 52 -19 59 0
98 31 54 43 -19 5 -20 14 -20 120 0 128 -7 158 -43 182 -29 19 -108 27 -157
16z m90 -246 c0 -62 -1 -65 -27 -71 -20 -6 -31 -2 -45 16 -31 38 -18 92 25
110 43 17 47 13 47 -55z"/>
<path d="M4875 145 c-52 -51 -14 -139 60 -139 29 0 43 7 61 28 28 31 30 56 9
95 -25 49 -90 57 -130 16z"/>
</g>
</svg>
