<?xml version="1.0" standalone="no"?>
<!DOCTYPE svg PUBLIC "-//W3C//DTD SVG 20010904//EN"
 "http://www.w3.org/TR/2001/REC-SVG-20010904/DTD/svg10.dtd">
<svg version="1.0" xmlns="http://www.w3.org/2000/svg"
 viewBox="0 0 154 50"
 preserveAspectRatio="xMidYMid meet">

<g transform="translate(0.000000,40.000000) scale(0.100000,-0.100000)"
fill="#000000" stroke="none">
<path d="M350 140 c0 -82 3 -100 15 -100 10 0 15 11 15 35 0 34 1 35 40 35 27
0 45 6 60 22 27 29 25 54 -5 83 -19 20 -34 25 -75 25 l-50 0 0 -100z m110 55
c16 -19 4 -52 -23 -59 -49 -13 -57 -8 -57 34 0 39 1 40 34 40 18 0 39 -7 46
-15z"/>
<path d="M520 139 c0 -76 3 -100 13 -97 6 3 13 19 15 36 5 46 41 44 73 -3 13
-19 30 -35 37 -35 18 0 15 14 -9 44 l-21 27 21 20 c28 26 28 73 -1 93 -14 10
-44 16 -75 16 l-53 0 0 -101z m118 42 c4 -29 -12 -41 -55 -41 -31 0 -33 2 -33
36 l0 35 43 -3 c36 -3 43 -7 45 -27z"/>
<path d="M734 222 c-44 -35 -55 -82 -30 -131 28 -54 92 -65 150 -26 36 24 37
24 56 5 33 -33 88 -38 130 -11 12 8 12 13 2 23 -9 9 -15 9 -24 0 -35 -35 -108
3 -108 56 0 60 56 91 110 62 26 -14 39 9 15 27 -32 22 -92 16 -121 -12 l-25
-26 -30 26 c-36 30 -93 33 -125 7z m111 -35 c36 -52 2 -121 -57 -115 -71 7
-90 105 -26 133 37 15 64 9 83 -18z"/>
<path d="M1080 139 c0 -76 3 -100 13 -97 8 3 13 35 15 101 2 82 0 97 -13 97
-12 0 -15 -17 -15 -101z"/>
<path d="M1134 223 c21 -67 75 -178 87 -178 12 0 87 154 88 183 1 6 -5 12 -13
12 -7 0 -26 -32 -42 -75 -16 -41 -31 -75 -34 -75 -3 0 -18 34 -33 75 -18 48
-34 75 -43 75 -10 0 -13 -6 -10 -17z"/>
<path d="M1339 223 c-3 -48 2 -177 7 -182 9 -10 20 17 18 46 -1 15 -3 56 -3
91 -1 34 -5 62 -11 62 -5 0 -10 -8 -11 -17z"/>
<path d="M1418 229 c-11 -6 -18 -22 -18 -39 0 -32 24 -54 73 -65 32 -8 39 -17
31 -39 -7 -19 -64 -22 -81 -5 -12 12 -33 4 -33 -11 0 -15 69 -32 100 -25 35 8
54 36 45 66 -6 18 -38 38 -87 53 -22 7 -24 42 -3 50 8 3 27 1 41 -4 34 -13 53
-2 29 17 -22 15 -73 17 -97 2z"/>
</g>
</svg>
