<?xml version="1.0" standalone="no"?>
<!DOCTYPE svg PUBLIC "-//W3C//DTD SVG 20010904//EN"
 "http://www.w3.org/TR/2001/REC-SVG-20010904/DTD/svg10.dtd">
<svg version="1.0" xmlns="http://www.w3.org/2000/svg"
 viewBox="0 0 521 97"
 preserveAspectRatio="xMidYMid meet">

<g transform="translate(0.000000,97.000000) scale(0.100000,-0.100000)"
fill="#000000" stroke="none">
<path d="M493 740 c-66 -33 -102 -73 -135 -147 -30 -67 -23 -191 15 -255 55
-95 142 -142 255 -141 100 1 173 37 220 108 l34 50 -30 12 c-64 26 -77 26 -90
-1 -29 -65 -154 -89 -223 -43 -39 26 -79 81 -79 108 0 18 12 19 216 19 l217 0
-6 53 c-9 87 -28 136 -74 187 -78 86 -207 106 -320 50z m194 -87 c37 -17 73
-65 73 -95 0 -16 -14 -18 -145 -18 -135 0 -145 1 -145 19 0 10 10 31 22 46 49
63 125 82 195 48z"/>
<path d="M1141 759 c-123 -38 -196 -141 -194 -279 0 -46 7 -90 17 -113 24 -54
82 -115 140 -145 43 -22 64 -26 128 -25 94 1 150 25 208 90 57 65 53 76 -31
96 -21 5 -28 2 -40 -19 -33 -62 -151 -84 -222 -41 -44 26 -77 72 -77 105 l0
22 209 0 c174 0 210 2 214 15 8 20 -11 132 -28 165 -25 47 -66 90 -109 112
-47 24 -161 33 -215 17z m156 -108 c25 -12 48 -32 57 -50 32 -61 31 -61 -134
-61 l-150 0 11 27 c22 58 83 103 139 103 19 0 54 -9 77 -19z"/>
<path d="M2230 761 c-133 -41 -213 -148 -212 -283 1 -247 299 -375 484 -209
69 61 98 125 98 214 0 124 -68 222 -184 266 -57 21 -138 26 -186 12z m155
-117 c49 -23 88 -84 92 -147 13 -166 -186 -261 -290 -138 -77 92 -52 243 47
287 42 18 111 17 151 -2z"/>
<path d="M2849 756 c-91 -32 -146 -86 -180 -176 -23 -61 -24 -119 -3 -190 22
-73 108 -160 179 -180 106 -31 208 -11 280 52 42 37 75 84 75 106 0 14 -104
44 -109 31 -9 -27 -65 -79 -97 -89 -19 -7 -52 -9 -73 -5 -91 15 -141 80 -141
183 0 68 23 112 79 149 66 44 174 23 212 -42 12 -19 22 -35 23 -35 5 0 101 33
104 35 10 8 -43 87 -75 114 -69 57 -189 78 -274 47z"/>
<path d="M3380 743 c-54 -28 -102 -78 -114 -119 -6 -19 -1 -23 46 -34 48 -12
53 -11 63 5 35 63 96 87 166 66 26 -8 44 -21 54 -41 20 -38 19 -46 -5 -70 -17
-17 -33 -20 -96 -20 -98 0 -148 -15 -195 -60 -64 -61 -65 -152 -1 -219 43 -45
111 -64 179 -52 44 9 92 35 106 58 14 24 27 14 27 -22 l0 -35 60 0 60 0 0 174
c0 195 -10 264 -44 317 -54 81 -200 106 -306 52z m222 -333 c-6 -65 -50 -108
-121 -117 -105 -14 -148 108 -51 143 19 7 67 12 105 11 l70 -2 -3 -35z"/>
<path d="M10 480 l0 -280 59 0 60 0 3 168 c3 181 10 208 60 245 15 11 49 22
77 25 l51 5 0 58 0 59 -34 0 c-48 0 -86 -16 -123 -53 l-33 -31 0 42 0 42 -60
0 -60 0 0 -280z"/>
<path d="M1540 710 l0 -50 145 0 c80 0 145 -2 145 -5 0 -3 -67 -83 -150 -177
l-150 -171 0 -53 0 -54 230 0 230 0 0 55 0 54 -155 3 -154 3 154 177 c151 173
155 178 155 223 l0 45 -225 0 -225 0 0 -50z"/>
<path d="M3820 480 l0 -280 59 0 59 0 4 174 c3 158 5 177 24 203 27 37 80 63
127 63 l37 0 0 60 0 60 -34 0 c-48 0 -86 -16 -123 -53 l-33 -31 0 42 0 42 -60
0 -60 0 0 -280z"/>
</g>
</svg>
