<?xml version="1.0" encoding="UTF-8"?>
<svg height="20" viewBox="0 0 127 34" version="1.1" xmlns="http://www.w3.org/2000/svg" xmlns:xlink="http://www.w3.org/1999/xlink">
    <title>TCM</title>
    <defs>
        <path d="M124.458339,0.0499669201 C125.437156,0.213806959 126.100192,1.15235389 125.937658,2.14586314 C125.903603,2.35576683 125.833429,2.55834221 125.730233,2.74364373 L109.469079,31.9903993 C107.508866,31.6621958 106.182793,29.784055 106.506314,27.7954662 C106.574939,27.3740884 106.715802,26.9684142 106.922711,26.5967643 L120.66278,1.89355995 C121.42024,0.531541476 122.937226,-0.204953524 124.458339,0.0499669201 Z M112.140046,0.0499669201 C113.119379,0.213806959 113.782415,1.15235389 113.619881,2.14638659 C113.585826,2.35629028 113.515653,2.55886566 113.412456,2.74416718 L97.1502701,31.9903993 C95.1905727,31.6616723 93.8645005,29.784055 94.1880208,27.7959896 C94.2566464,27.3746119 94.3975093,26.9694611 94.6044178,26.5978112 L108.343971,1.8940834 C109.101432,0.531541476 110.618417,-0.204953524 112.140046,0.0499669201 Z M37.5392707,2.13269337 C38.7168611,2.13269337 39.7937162,2.27205699 40.7701933,2.55041238 L40.9937524,2.61711538 C42.0282687,2.91482824 42.9477396,3.34630288 43.7490438,3.9124682 C44.5766568,4.45123093 45.2887786,5.11167974 45.8845173,5.8919568 C46.5047812,6.64668908 47.0358626,7.48316468 47.4750861,8.39906133 L44.7065267,9.72992256 C43.4844721,10.31737 42.0322258,10.0545028 41.0827131,9.07398528 C40.87139,8.85576177 40.6733303,8.68466339 40.4885339,8.56069015 C39.7130926,8.02192741 38.7031015,7.75161714 37.461236,7.75161714 C36.4525827,7.75161714 35.546935,7.98198466 34.7456308,8.43900408 C33.9425429,8.87094317 33.2701074,9.49144922 32.7265404,10.2986644 C32.1834193,11.0807993 31.768721,12.0240985 31.4846749,13.1290266 C31.1992911,14.2065521 31.057937,15.4057636 31.057937,16.7266612 C31.057937,17.9932181 31.1992911,19.179425 31.4846749,20.2843531 C31.768721,21.3618785 32.1834193,22.3056422 32.7265404,23.1147152 C33.2964162,23.9219304 33.9808914,24.5568344 34.7839792,25.0143183 C35.5852834,25.4731956 36.4909311,25.7017053 37.5013681,25.7017053 C38.7432336,25.7017053 39.751441,25.4188548 40.528666,24.8526895 C40.7325615,24.7085459 40.9698409,24.4858274 41.240504,24.1845338 C42.266592,23.0423253 43.9400118,22.7978217 45.2389566,23.6003194 L47.3983892,24.9344328 C46.4664327,26.9552575 45.1723955,28.5320674 43.5158317,29.6639336 C41.8869145,30.7688617 39.8299216,31.320629 37.344407,31.320629 C35.5589746,31.320629 33.9425429,30.9829734 32.4933283,30.3099845 C31.0441137,29.6095929 29.7902086,28.6263509 28.7293835,27.3584007 C27.6944213,26.0918438 26.8917794,24.5698391 26.3219036,22.791922 C25.7524737,20.9847446 25.4684277,18.9634555 25.4684277,16.7266612 C25.4684277,14.5711458 25.766297,12.602804 26.3602521,10.824887 C26.9559907,9.01956738 27.7836038,7.48316468 28.8457666,6.2166078 C29.9065917,4.92311278 31.174766,3.92500837 32.6485058,3.22508126 C34.1235833,2.49728712 35.7542842,2.13269337 37.5392707,2.13269337 Z M52.4566837,2.55923204 C54.0665291,2.55923204 55.5272964,3.51610737 56.1908723,5.00531144 L61.4373435,14.645979 C61.8022536,15.3165205 62.6334461,15.5597491 63.2938639,15.1892453 C63.5238682,15.0602097 63.7123406,14.8665625 63.8366884,14.631517 L68.9034174,5.05425166 C69.5557204,3.53870285 71.0300669,2.55923204 72.6590407,2.55923204 L75.351576,2.55923204 L75.351576,30.7319352 L71.7219266,30.7319352 C70.7158905,30.7319352 69.9003371,29.9038801 69.9003371,28.8824224 L69.9003371,18.9394418 C69.9249447,18.3489849 69.9388144,17.7455813 69.9388144,17.1296936 L69.9388144,15.3976249 L69.9620393,14.8654654 L69.9760801,14.3500579 C69.9768922,14.2924951 69.9772916,14.2394095 69.9772916,14.1908178 L69.7975726,14.6468139 C69.5515915,15.2282376 67.7158187,19.3666871 64.2902543,27.0621625 C63.8759134,27.9929629 62.7968548,28.4064914 61.8801057,27.9858027 C61.4815359,27.8029023 61.1610893,27.4804982 60.9773217,27.0775041 L55.1009215,14.1908178 L55.1009215,15.3976249 C55.1273186,15.9339836 55.1393987,16.5119563 55.1393987,17.1296936 L55.1393987,18.9394418 L55.1613715,19.4939018 L55.171417,19.8236719 C55.1768375,20.0329206 55.1796656,20.221 55.1796656,20.3880727 L55.1796656,28.8824224 C55.1796656,29.9038801 54.3641122,30.7319352 53.3580761,30.7319352 L49.8438583,30.7319352 L49.8438583,2.55923204 L52.4566837,2.55923204 Z M21.758972,2.55923204 L21.758972,6.2638061 C21.758972,7.28526379 20.9330644,8.11331886 19.9142558,8.11331886 L13.6901834,8.11331886 L13.6901834,28.4200442 C13.6901834,29.6968663 12.6577989,30.7319352 11.3842881,30.7319352 L8.07117787,30.7319352 L8.07117787,8.11331886 L1.84710545,8.11331886 C0.82829683,8.11331886 0.00238925975,7.28526379 0.00238925975,6.2638061 L0.00238925975,2.55923204 L21.758972,2.55923204 Z M86.3930831,20.8454031 C86.8755258,20.8454031 87.3270095,20.9495698 87.7542421,21.1537155 C88.1814747,21.3332591 88.5591731,21.5913202 88.8873373,21.9294693 C89.2144695,22.2629074 89.4688483,22.6497374 89.6417021,23.0873421 C89.8460308,23.5254702 89.9456152,23.9871537 89.9456152,24.4797207 C89.9456152,24.9670532 89.8460308,25.4292601 89.6417021,25.8668648 C89.4688483,26.3034226 89.2144695,26.6912995 88.8873373,27.0247375 C88.5591731,27.3618397 88.1814747,27.6199008 87.7542421,27.7994444 C87.3270095,28.0035901 86.8755258,28.1077568 86.3930831,28.1077568 C85.9163163,28.1077568 85.4632846,28.0035901 85.036052,27.7994444 C84.6036596,27.6199008 84.2275092,27.3618397 83.9045048,27.0247375 C83.5758246,26.6912995 83.3080303,26.3034226 83.1093774,25.8668648 C82.9298159,25.4292601 82.8457109,24.9670532 82.8457109,24.4797207 C82.8457109,23.9871537 82.9298159,23.5254702 83.1093774,23.0873421 C83.3080303,22.6497374 83.5758246,22.2629074 83.9045048,21.9294693 C84.2275092,21.5913202 84.6036596,21.3332591 85.036052,21.1537155 C85.4632846,20.9495698 85.9163163,20.8454031 86.3930831,20.8454031 Z M86.3930831,6.97752159 C86.8755258,6.97752159 87.3270095,7.07645376 87.7542421,7.28531055 C88.1814747,7.4648541 88.5591731,7.7234387 88.8873373,8.05582983 C89.1597755,8.33744626 89.3816475,8.65046972 89.5483095,9.00327543 L89.6417021,9.21946053 C89.8460308,9.65601833 89.9456152,10.1192721 89.9456152,10.6055577 C89.9456152,11.0981247 89.8460308,11.5598082 89.6417021,11.9979363 C89.4688483,12.435541 89.2144695,12.8234179 88.8873373,13.1558091 C88.5591731,13.4939582 88.1814747,13.7624883 87.7542421,13.9713451 C87.3270095,14.1508887 86.8755258,14.2398753 86.3930831,14.2398753 C85.9163163,14.2398753 85.4632846,14.1508887 85.036052,13.9713451 C84.6036596,13.7624883 84.2275092,13.4939582 83.9045048,13.1558091 C83.5758246,12.8234179 83.3080303,12.435541 83.1093774,11.9979363 C82.9298159,11.5598082 82.8457109,11.0981247 82.8457109,10.6055577 C82.8457109,10.1192721 82.9298159,9.65601833 83.1093774,9.21946053 C83.3080303,8.77714477 83.5758246,8.39397892 83.9045048,8.05582983 C84.2275092,7.7234387 84.6036596,7.4648541 85.036052,7.28531055 C85.4632846,7.07645376 85.9163163,6.97752159 86.3930831,6.97752159 Z" id="path-1"></path>
    </defs>
    <g id="Page-1" stroke="none" stroke-width="1" fill="none" fill-rule="evenodd">
        <g id="HP---TCM-v0.1" transform="translate(-84.000000, -61.000000)">
            <g id="TCM" transform="translate(84.000000, 61.000000)">
                <g id="vert" transform="translate(10.000000, 2.000000)" fill="#00ECAE">
                    <path d="M115.474142,0.0499669201 C116.450504,0.213806959 117.111878,1.15235389 116.949751,2.14586314 C116.915782,2.35576683 116.845785,2.55834221 116.742847,2.74364373 L107.146188,20.0473177 L101.61594,20.0473177 L111.6881,1.89355995 C112.443662,0.531541476 113.956843,-0.204953524 115.474142,0.0499669201 Z" id="Path"></path>
                    <path d="M102.665875,5.97154143 L88.2345489,31.9904017 C86.2797655,31.6616723 84.9570184,29.784055 85.2797275,27.7959896 C85.348181,27.3746119 85.4886907,26.9694611 85.6950804,26.5978112 L97.1377237,5.97154143 L102.665875,5.97154143 Z" id="Path"></path>
                    <path d="M81.0479598,24.4797207 C81.0479598,24.9670532 80.9486251,25.4292601 80.7448088,25.8668648 C80.5723884,26.3034226 80.3186475,26.6912995 79.9923355,27.0247375 C79.7013655,27.3243839 79.3713555,27.5615781 79.0023054,27.7366878 L78.8620816,27.7994444 C78.4359203,28.0035901 77.9855687,28.1077568 77.5043358,28.1077568 C77.0816057,28.1077568 76.6775823,28.0254523 76.2937115,27.8637843 L76.1507075,27.7994444 C75.7193993,27.6199008 75.344192,27.3618397 75.0219976,27.0247375 C74.6941416,26.6912995 74.4270188,26.3034226 74.2288641,25.8668648 C74.0497528,25.4292601 73.9658587,24.9670532 73.9658587,24.4797207 C73.9658587,24.1242888 74.0095418,23.7849378 74.1011624,23.4589142 L80.8910273,23.4594406 C80.9962925,23.7853031 81.0479598,24.1244801 81.0479598,24.4797207 Z" id="Path"></path>
                    <path d="M77.5043358,6.97752159 C77.9855687,6.97752159 78.4359203,7.07645376 78.8620816,7.28531055 C78.9768001,7.33364193 79.0879382,7.38770091 79.1954959,7.44738536 L77.2827866,14.2333299 C76.8879413,14.2098022 76.5101697,14.1227881 76.1507075,13.9713451 C75.7193993,13.7624883 75.344192,13.4939582 75.0219976,13.1558091 C74.6941416,12.8234179 74.4270188,12.435541 74.2288641,11.9979363 C74.0497528,11.5598082 73.9658587,11.0981247 73.9658587,10.6055577 C73.9658587,10.1192721 74.0497528,9.65601833 74.2288641,9.21946053 C74.4270188,8.77714477 74.6941416,8.39397892 75.0219976,8.05582983 C75.344192,7.7234387 75.7193993,7.4648541 76.1507075,7.28531055 C76.5768688,7.07645376 77.0287645,6.97752159 77.5043358,6.97752159 Z" id="Path"></path>
                    <path d="M67.1487826,2.37592616 L67.1487826,30.5486293 L63.5282347,30.5486293 C62.5247212,30.5486293 61.7112128,29.7205742 61.7112128,28.6991165 L61.7112128,18.7561359 C61.7357587,18.165679 61.7495936,17.5622754 61.7495936,16.9463877 L61.7495936,15.214319 L61.7727603,14.6821596 L61.7867659,14.166752 L61.7879743,14.0075119 L61.7879743,14.0075119 L61.608706,14.463508 L61.1877374,15.4291903 C60.4371146,17.1367852 58.746268,20.9533406 56.1151974,26.8788567 C55.7018955,27.809657 54.6255426,28.2231855 53.7110923,27.8024969 C53.3135219,27.6195964 52.9938788,27.2971924 52.8105721,26.8941982 L46.948907,14.0075119 L46.948907,3.3577966 C47.4053288,3.7499073 47.7801762,4.246159 48.0361248,4.82200556 L53.2694404,14.4626732 C53.6334354,15.1332146 54.4625437,15.3764432 55.1213055,15.0059394 C55.350733,14.8769038 55.5387329,14.6832566 55.6627689,14.4482111 L60.7167929,4.87094579 C61.3674602,3.35539698 62.8381098,2.37592616 64.4629989,2.37592616 L67.1487826,2.37592616 Z" id="Path"></path>
                    <path d="M29.1149421,1.95326519 L29.1149421,7.57269584 C28.2495937,7.60476779 27.4628695,7.81271261 26.7556613,8.19404697 L26.6446577,8.25569821 C25.8435836,8.6876373 25.1728342,9.30814334 24.6306302,10.1153585 C24.0888711,10.8974934 23.6752126,11.8407927 23.3918788,12.9457207 C23.1072106,14.0232462 22.9662109,15.2224577 22.9662109,16.5433553 C22.9662109,17.8099122 23.1072106,18.9961191 23.3918788,20.1010472 C23.6752126,21.1785727 24.0888711,22.1223363 24.6306302,22.9314094 C25.199077,23.7386246 25.8818359,24.3735286 26.68291,24.8310124 C27.4078425,25.247198 28.2183912,25.4738866 29.1149421,25.5124643 L29.1148013,31.1363785 L29.053282,31.1363785 C27.3449619,31.1136378 25.793736,30.776461 24.3980029,30.1266786 C22.9524223,29.426287 21.7016614,28.443045 20.6434963,27.1750948 C19.6111293,25.9085379 18.8105,24.3865332 18.2420532,22.6086162 C17.6740512,20.8014387 17.3907174,18.7801496 17.3907174,16.5433553 C17.3907174,14.3878399 17.6878398,12.4194981 18.2803055,10.6415811 C18.8533273,8.9007372 19.6414162,7.40994486 20.6469649,6.17003697 L20.7595876,6.03330192 C21.779961,4.78600315 22.992654,3.81337244 24.3960712,3.11790843 L24.5527913,3.04177538 C25.9365582,2.35731701 27.4576223,1.99409395 29.1149421,1.95326519 Z" id="Path"></path>
                    <path d="M0.0368439411,2.37585478 L13.6905633,2.37585478 L13.6905633,6.08050022 C13.6905633,7.10195792 12.8667267,7.93001298 11.8504727,7.93001298 L5.64200732,7.93001298 L5.64200732,28.2367383 C5.64200732,29.5135605 4.61221159,30.5486293 3.34189417,30.5486293 L0.0370915932,30.5486293 L0.0368439411,2.37585478 Z" id="Path"></path>
                </g>
                <g id="Rayure">
                    <mask id="mask-2" fill="white">
                        <use xlink:href="#path-1"></use>
                    </mask>
                    <use id="Combined-Shape" fill="#FFFFFF" opacity="0" xlink:href="#path-1"></use>
                    <path d="M73.0718965,-1.24788971 L73.4470118,-0.58847789 L2.91217056,40.7429081 L2.53705525,40.0834962 L73.0718965,-1.24788971 Z M70.4785869,-1.24788971 L70.8537022,-0.58847789 L0.318860917,40.7429081 L-0.056254388,40.0834962 L70.4785869,-1.24788971 Z M67.8852772,-1.24788971 L68.2603925,-0.58847789 L-2.27444872,40.7429081 L-2.64956403,40.0834962 L67.8852772,-1.24788971 Z M65.2919676,-1.24788971 L65.6670829,-0.58847789 L-4.86775836,40.7429081 L-5.24287367,40.0834962 L65.2919676,-1.24788971 Z M62.698758,-1.24788971 L63.0738733,-0.58847789 L-7.46096797,40.7429081 L-7.83608328,40.0834962 L62.698758,-1.24788971 Z M60.1054483,-1.24788971 L60.4805636,-0.58847789 L-10.0542776,40.7429081 L-10.4293929,40.0834962 L60.1054483,-1.24788971 Z M57.5121387,-1.24788971 L57.887254,-0.58847789 L-12.6475873,40.7429081 L-13.0227026,40.0834962 L57.5121387,-1.24788971 Z M54.918829,-1.24788971 L55.2939444,-0.58847789 L-15.2408969,40.7429081 L-15.6160122,40.0834962 L54.918829,-1.24788971 Z M52.3256444,-1.24788971 L52.7007598,-0.58847789 L-17.8340815,40.7429081 L-18.2091968,40.0834962 L52.3256444,-1.24788971 Z M49.7323098,-1.24788971 L50.1074251,-0.58847789 L-20.4274161,40.7429081 L-20.8025314,40.0834962 L49.7323098,-1.24788971 Z M47.1390002,-1.24788971 L47.5141155,-0.58847789 L-23.0207258,40.7429081 L-23.3958411,40.0834962 L47.1390002,-1.24788971 Z M44.5456905,-1.24788971 L44.9208058,-0.58847789 L-25.6140354,40.7429081 L-25.9891507,40.0834962 L44.5456905,-1.24788971 Z M41.9525059,-1.24788971 L42.3276212,-0.58847789 L-28.20722,40.7429081 L-28.5823353,40.0834962 L41.9525059,-1.24788971 Z M39.3591963,-1.24788971 L39.7343116,-0.58847789 L-30.8005297,40.7429081 L-31.175645,40.0834962 L39.3591963,-1.24788971 Z M36.7658616,-1.24788971 L37.1409769,-0.58847789 L-33.3938643,40.7429081 L-33.7689796,40.0834962 L36.7658616,-1.24788971 Z M34.172552,-1.24788971 L34.5476673,-0.58847789 L-35.987174,40.7429081 L-36.3622893,40.0834962 L34.172552,-1.24788971 Z M31.5804436,-1.24788971 L31.9555589,-0.58847789 L-38.5792823,40.7429081 L-38.9543976,40.0834962 L31.5804436,-1.24788971 Z M28.987159,-1.24788971 L29.3622743,-0.58847789 L-41.172567,40.7429081 L-41.5476823,40.0834962 L28.987159,-1.24788971 Z M26.3938744,-1.24788971 L26.7689897,-0.58847789 L-43.7658516,40.7429081 L-44.1409669,40.0834962 L26.3938744,-1.24788971 Z M23.8005897,-1.24788971 L24.175705,-0.58847789 L-46.3591362,40.7429081 L-46.7342515,40.0834962 L23.8005897,-1.24788971 Z M21.2073051,-1.24788971 L21.5824204,-0.58847789 L-48.9524209,40.7429081 L-49.3275362,40.0834962 L21.2073051,-1.24788971 Z M18.6140205,-1.24788971 L18.9891358,-0.58847789 L-51.5457055,40.7429081 L-51.9208208,40.0834962 L18.6140205,-1.24788971 Z M16.0207358,-1.24788971 L16.3958511,-0.58847789 L-54.1389901,40.7429081 L-54.5141054,40.0834962 L16.0207358,-1.24788971 Z M13.4274512,-1.24788971 L13.8025665,-0.58847789 L-56.7322748,40.7429081 L-57.1073901,40.0834962 L13.4274512,-1.24788971 Z M10.8341666,-1.24788971 L11.2092819,-0.58847789 L-59.3255594,40.7429081 L-59.7006747,40.0834962 L10.8341666,-1.24788971 Z M8.24088192,-1.24788971 L8.61599723,-0.58847789 L-61.918844,40.7429081 L-62.2939593,40.0834962 L8.24088192,-1.24788971 Z M5.64759729,-1.24788971 L6.0227126,-0.58847789 L-64.5121286,40.7429081 L-64.887244,40.0834962 L5.64759729,-1.24788971 Z M137.904488,-1.24788971 L138.279604,-0.58847789 L67.7447624,40.7429081 L67.743756,40.7401103 L67.7406047,40.7429081 L67.3654894,40.0834962 L137.900331,-1.24788971 L137.900756,-1.24588971 L137.904488,-1.24788971 Z M135.311204,-1.24788971 L135.686319,-0.58847789 L65.1514778,40.7429081 L65.149756,40.7401103 L65.1472951,40.7429081 L64.7721798,40.0834962 L135.307021,-1.24788971 L135.307756,-1.24588971 L135.311204,-1.24788971 Z M132.717919,-1.24788971 L133.093034,-0.58847789 L62.5581932,40.7429081 L62.556756,40.7401103 L62.5539854,40.7429081 L62.1788701,40.0834962 L132.713711,-1.24788971 L132.713756,-1.24588971 L132.717919,-1.24788971 Z M130.124634,-1.24788971 L130.49975,-0.58847789 L59.9649085,40.7429081 L59.963756,40.7401103 L59.9606758,40.7429081 L59.5855605,40.0834962 L130.120402,-1.24788971 L130.120756,-1.24588971 L130.124634,-1.24788971 Z M127.53135,-1.24788971 L127.906465,-0.58847789 L57.3716239,40.7429081 L57.369756,40.7401103 L57.3674662,40.7429081 L56.9923509,40.0834962 L127.527192,-1.24788971 L127.527756,-1.24588971 L127.53135,-1.24788971 Z M124.933882,-1.24788971 L125.308998,-0.58847789 L54.7741565,40.7429081 L54.3990412,40.0834962 L124.933882,-1.24788971 Z M122.340573,-1.24788971 L122.715688,-0.58847789 L52.1808469,40.7429081 L51.8057316,40.0834962 L122.340573,-1.24788971 Z M119.747263,-1.24788971 L120.122378,-0.58847789 L49.5875372,40.7429081 L49.2124219,40.0834962 L119.747263,-1.24788971 Z M117.154079,-1.24788971 L117.529194,-0.58847789 L46.9943526,40.7429081 L46.6192373,40.0834962 L117.154079,-1.24788971 Z M114.560744,-1.24788971 L114.935859,-0.58847789 L44.401018,40.7429081 L44.0259027,40.0834962 L114.560744,-1.24788971 Z M111.967434,-1.24788971 L112.34255,-0.58847789 L41.8077084,40.7429081 L41.4325931,40.0834962 L111.967434,-1.24788971 Z M109.374125,-1.24788971 L109.74924,-0.58847789 L39.2143987,40.7429081 L38.8392834,40.0834962 L109.374125,-1.24788971 Z M106.78094,-1.24788971 L107.156055,-0.58847789 L36.6212141,40.7429081 L36.2460988,40.0834962 L106.78094,-1.24788971 Z M104.18763,-1.24788971 L104.562746,-0.58847789 L34.0279045,40.7429081 L33.6527892,40.0834962 L104.18763,-1.24788971 Z M101.594296,-1.24788971 L101.969411,-0.58847789 L31.4345698,40.7429081 L31.0594545,40.0834962 L101.594296,-1.24788971 Z M99.0009861,-1.24788971 L99.3761014,-0.58847789 L28.8412602,40.7429081 L28.4661449,40.0834962 L99.0009861,-1.24788971 Z M96.4088778,-1.24788971 L96.7839931,-0.58847789 L26.2491518,40.7429081 L25.8740365,40.0834962 L96.4088778,-1.24788971 Z M93.8155931,-1.24788971 L94.1907084,-0.58847789 L23.6558672,40.7429081 L23.2807519,40.0834962 L93.8155931,-1.24788971 Z M91.2223085,-1.24788971 L91.5974238,-0.58847789 L21.0625826,40.7429081 L20.6874672,40.0834962 L91.2223085,-1.24788971 Z M88.6290239,-1.24788971 L89.0041392,-0.58847789 L18.4692979,40.7429081 L18.0941826,40.0834962 L88.6290239,-1.24788971 Z M86.0357392,-1.24788971 L86.4108545,-0.58847789 L15.8760133,40.7429081 L15.500898,40.0834962 L86.0357392,-1.24788971 Z M83.4424546,-1.24788971 L83.8175699,-0.58847789 L13.2827287,40.7429081 L12.9076133,40.0834962 L83.4424546,-1.24788971 Z M80.84917,-1.24788971 L81.2242853,-0.58847789 L10.689444,40.7429081 L10.3143287,40.0834962 L80.84917,-1.24788971 Z M78.2558853,-1.24788971 L78.6310006,-0.58847789 L8.09615939,40.7429081 L7.72104408,40.0834962 L78.2558853,-1.24788971 Z M75.6626007,-1.24788971 L76.037716,-0.58847789 L5.50287476,40.7429081 L5.12775945,40.0834962 L75.6626007,-1.24788971 Z M189.76908,-1.24788971 L190.144195,-0.58847789 L119.609354,40.7429081 L119.234239,40.0834962 L189.76908,-1.24788971 Z M187.17577,-1.24788971 L187.550885,-0.58847789 L117.016044,40.7429081 L116.640929,40.0834962 L187.17577,-1.24788971 Z M184.58246,-1.24788971 L184.957576,-0.58847789 L114.422735,40.7429081 L114.047619,40.0834962 L184.58246,-1.24788971 Z M181.989151,-1.24788971 L182.364266,-0.58847789 L111.829425,40.7429081 L111.45431,40.0834962 L181.989151,-1.24788971 Z M179.395941,-1.24788971 L179.771057,-0.58847789 L109.236215,40.7429081 L108.8611,40.0834962 L179.395941,-1.24788971 Z M176.802632,-1.24788971 L177.177747,-0.58847789 L106.642906,40.7429081 L106.26779,40.0834962 L176.802632,-1.24788971 Z M174.209322,-1.24788971 L174.584437,-0.58847789 L104.049596,40.7429081 L103.674481,40.0834962 L174.209322,-1.24788971 Z M171.616012,-1.24788971 L171.991128,-0.58847789 L101.456286,40.7429081 L101.081171,40.0834962 L171.616012,-1.24788971 Z M169.022828,-1.24788971 L169.397943,-0.58847789 L98.8631018,40.7429081 L98.4879865,40.0834962 L169.022828,-1.24788971 Z M166.429493,-1.24788971 L166.804608,-0.58847789 L96.2697671,40.7429081 L95.8946518,40.0834962 L166.429493,-1.24788971 Z M163.836183,-1.24788971 L164.211299,-0.58847789 L93.6764575,40.7429081 L93.3013422,40.0834962 L163.836183,-1.24788971 Z M161.242874,-1.24788971 L161.617989,-0.58847789 L91.0831478,40.7429081 L90.7080325,40.0834962 L161.242874,-1.24788971 Z M158.649689,-1.24788971 L159.024804,-0.58847789 L88.4899632,40.7429081 L88.1148479,40.0834962 L158.649689,-1.24788971 Z M156.05638,-1.24788971 L156.431495,-0.58847789 L85.8966536,40.7429081 L85.5215383,40.0834962 L156.05638,-1.24788971 Z M153.463045,-1.24788971 L153.83816,-0.58847789 L83.303319,40.7429081 L82.9282037,40.0834962 L153.463045,-1.24788971 Z M150.869735,-1.24788971 L151.244851,-0.58847789 L80.7100093,40.7429081 L80.334894,40.0834962 L150.869735,-1.24788971 Z M148.277627,-1.24788971 L148.652742,-0.58847789 L78.1179009,40.7429081 L77.7427856,40.0834962 L148.277627,-1.24788971 Z M145.684342,-1.24788971 L146.059458,-0.58847789 L75.5246163,40.7429081 L75.149501,40.0834962 L145.684342,-1.24788971 Z M143.091058,-1.24788971 L143.466173,-0.58847789 L72.9313317,40.7429081 L72.5562164,40.0834962 L143.091058,-1.24788971 Z M140.497773,-1.24788971 L140.872888,-0.58847789 L70.338047,40.7429081 L69.9629317,40.0834962 L140.497773,-1.24788971 Z" id="Combined-Shape" fill="#000000" mask="url(#mask-2)"></path>
                </g>
                <g id="Black" transform="translate(9.000000, 0.000000)" fill="#000000">
                    <path d="M115.433374,0.0499669201 C116.403896,0.213806959 117.061313,1.15235389 116.900156,2.14586314 C116.86639,2.35576683 116.796811,2.55834221 116.69449,2.74364373 L105.273717,23.459627 L99.7761348,23.459627 L111.669981,1.89355995 C112.421022,0.531541476 113.925152,-0.204953524 115.433374,0.0499669201 Z" id="Path"></path>
                    <path d="M97.292903,15.7819309 L88.3567296,31.9904017 C86.4136398,31.6616723 85.0988055,29.784055 85.4195842,27.7959896 C85.4876281,27.3746119 85.6272973,26.9694611 85.8324524,26.5978112 L91.796571,15.7819309 L97.292903,15.7819309 Z" id="Path"></path>
                    <path d="M77.5072219,20.8506936 L77.5072219,28.1024663 C77.1521441,28.0818726 76.8108515,28.0012614 76.4842462,27.8624788 L76.3451744,27.7994444 C75.9164463,27.6199008 75.5434836,27.3618397 75.2232166,27.0247375 C74.8973218,26.6912995 74.6317969,26.3034226 74.4348276,25.8668648 C74.2567877,25.4292601 74.1733955,24.9670532 74.1733955,24.4797207 C74.1733955,23.9871537 74.2567877,23.5254702 74.4348276,23.0873421 C74.6317969,22.6497374 74.8973218,22.2629074 75.2232166,21.9294693 C75.5078984,21.6288924 75.8342163,21.3915948 76.2043262,21.2164736 L76.3451744,21.1537155 C76.7136207,20.9761551 77.1014187,20.8742293 77.5072219,20.8506936 Z" id="Path"></path>
                    <path d="M74.173782,10.6634402 L81.2115037,10.6631404 L81.2131311,10.6055577 C81.2131311,11.0981247 81.1143906,11.5598082 80.9117936,11.9979363 C80.7404046,12.435541 80.4881816,12.8234179 80.1638217,13.1558091 C79.8384385,13.4939582 79.463941,13.7624883 79.040329,13.9713451 C78.616717,14.1508887 78.1690594,14.2398753 77.6907053,14.2398753 C77.2179788,14.2398753 76.7687864,14.1508887 76.3451744,13.9713451 C75.9164463,13.7624883 75.5434836,13.4939582 75.2232166,13.1558091 C74.8973218,12.8234179 74.6317969,12.435541 74.4348276,11.9979363 C74.2637788,11.5770122 74.1800906,11.1343463 74.173782,10.6634402 Z" id="Path"></path>
                    <path d="M66.7427702,2.55923204 L66.7427702,30.7319352 L63.1438806,30.7319352 C62.1463702,30.7319352 61.3377283,29.9038801 61.3377283,28.8824224 L61.3377283,18.9394418 C61.3621273,18.3489849 61.3758794,17.7455813 61.3758794,17.1296936 L61.3758794,15.3976249 L61.3989076,14.8654654 L61.4128294,14.3500579 L61.4140306,14.1908178 L61.2358347,14.6468139 L59.4038088,18.83209 C58.5136916,20.8546572 57.3041515,23.5980147 55.7751885,27.0621625 C55.4550442,27.787501 54.73467,28.1987256 54.0020205,28.145855 L54.0020205,15.3559767 C54.2651041,15.3822096 54.5383996,15.3300427 54.7872421,15.1892453 C55.0152972,15.0602097 55.2021724,14.8665625 55.3254664,14.631517 L60.349257,5.05425166 C60.996032,3.53870285 62.457884,2.55923204 64.073053,2.55923204 L66.7427702,2.55923204 Z" id="Path"></path>
                    <path d="M21.458475,5.30191581 L21.5424148,5.21949568 L21.5424148,5.21949568 L21.7270241,5.04420765 L21.7270241,5.04420765 L21.8637433,4.9194832 L21.8637433,4.9194832 L22.040825,4.764076 L22.040825,4.764076 L22.0797121,4.73084667 C22.1863036,4.64019697 22.2944531,4.55178265 22.4041535,4.46561054 L22.6633821,4.26828321 L22.6633821,4.26828321 L22.8571625,4.12870639 L22.8571625,4.12870639 L23.0050628,4.02652471 L23.0050628,4.02652471 L23.2148489,3.88777145 L23.2148489,3.88777145 L23.4190425,3.75939361 L23.4190425,3.75939361 L23.6158551,3.64161427 L23.6158551,3.64161427 L23.7942173,3.53972321 L23.7942173,3.53972321 L23.9916899,3.43208041 L23.9916899,3.43208041 L24.2106055,3.31884289 L24.4015904,3.22508126 C24.495025,3.17858718 24.5890894,3.13357535 24.6837831,3.09004615 L24.8400045,3.01982962 L25.0297692,2.93876229 L25.3213899,2.82295977 L25.3213899,2.82295977 L25.499334,2.75737165 L25.499334,2.75737165 L25.7090277,2.68487153 L25.7090277,2.68487153 L25.8689973,2.63296715 L25.8689973,2.63296715 L26.1632756,2.54497072 L26.1632756,2.54497072 L26.4073256,2.47913982 L26.4073256,2.47913982 L26.6169374,2.42761681 L26.6169374,2.42761681 L26.9168398,2.36172469 L26.9168398,2.36172469 L27.1519344,2.31633241 L27.1519344,2.31633241 L27.3733188,2.27847311 L27.3733188,2.27847311 L27.6048258,2.24382384 L27.6048258,2.24382384 L27.8462384,2.21293668 L27.8462384,2.21293668 L28.0804398,2.18796041 L28.0804398,2.18796041 L28.3147794,2.16776425 L28.3147794,2.16776425 L28.5562992,2.15184597 L28.5562992,2.15184597 L28.7239639,2.1436565 L28.7239639,2.1436565 L28.9364502,2.13657106 L28.9364502,2.13657106 C29.040573,2.13398737 29.1454691,2.13269337 29.2509081,2.13269337 C30.4185189,2.13269337 31.4862482,2.27205699 32.45445,2.55041238 L32.6761146,2.61711538 C33.7018638,2.91482824 34.6135426,3.34630288 35.4080561,3.9124682 C36.2286555,4.45123093 36.9347423,5.11167974 37.5254323,5.8919568 C38.1404397,6.64668908 38.6670205,7.48316468 39.1025217,8.39906133 L36.3574247,9.72992256 C35.1457265,10.31737 33.7057874,10.0545028 32.7643214,9.07398528 C32.5547892,8.85576177 32.3584079,8.68466339 32.1751776,8.56069015 C31.4063078,8.02192741 30.404876,7.75161714 29.1735348,7.75161714 C29.0677765,7.75161714 28.9631604,7.75419322 28.8596878,7.75934097 L28.705337,7.76899082 L28.59334,7.77850742 L28.4211866,7.7973913 L28.2534816,7.82091348 L28.1433279,7.83921106 L27.9753055,7.87162186 L27.8213046,7.90626968 L27.8213046,7.90626968 L27.7397169,7.92660447 L27.6282227,7.95667399 L27.4697886,8.00407126 L27.3995473,8.02689032 L27.3069889,8.05870191 L27.1643946,8.11169626 L27.1643946,8.11169626 L27.0892683,8.14161696 L26.9768576,8.18904631 L26.8405446,8.25097282 L26.7667379,8.28658588 L26.6692587,8.33593406 L26.5746265,8.38642861 L26.5746265,8.38642861 L26.4809432,8.43900408 C25.6846612,8.87094317 25.0179242,9.49144922 24.4789637,10.2986644 C23.9404454,11.0807993 23.5292614,12.0240985 23.2476226,13.1290266 L23.1878721,13.3672137 L23.1878721,13.3672137 L23.1273919,13.6338766 C23.0995292,13.7637516 23.073599,13.8952778 23.0495971,14.0284554 L23.0150398,14.2294603 L22.9767136,14.4785859 L22.9460122,14.7051455 L22.9137725,14.9806762 L22.8971201,15.144881 L22.8746192,15.4034762 L22.854626,15.6929801 L22.854626,15.6929801 L22.8399937,15.9799396 L22.8307735,16.248341 L22.8273206,16.4046897 C22.8254404,16.511198 22.824501,16.6185218 22.824501,16.7266612 C22.824501,17.9932181 22.9646573,19.179425 23.2476226,20.2843531 C23.5292614,21.3618785 23.9404454,22.3056422 24.4789637,23.1147152 C25.04401,23.9219304 25.7226846,24.5568344 26.5189666,25.0143183 C27.2395625,25.4305039 28.0452625,25.6571925 28.9364502,25.6957702 L28.9363102,31.3196844 L28.8751589,31.3196844 C27.1770581,31.2969437 25.6351117,30.9597669 24.247728,30.3099845 C22.8107949,29.6095929 21.5675161,28.6263509 20.5156811,27.3584007 C19.4894897,26.0918438 18.6936498,24.5698391 18.1286035,22.791922 C17.5639993,20.9847446 17.2823604,18.9634555 17.2823604,16.7266612 C17.2823604,16.2886001 17.2945587,15.8582695 17.3189403,15.4356968 L17.3469967,15.0206732 L17.3469967,15.0206732 L17.3653958,14.7991999 L17.3653958,14.7991999 L17.395371,14.488218 L17.395371,14.488218 L17.4219884,14.2473615 L17.4219884,14.2473615 L17.4689712,13.8763195 L17.4689712,13.8763195 L17.525849,13.4899319 L17.525849,13.4899319 L17.5761175,13.1881097 L17.5761175,13.1881097 L17.645349,12.8162232 L17.645349,12.8162232 L17.7061465,12.5214005 L17.7061465,12.5214005 L17.7721109,12.2275983 L17.7721109,12.2275983 L17.8381824,11.955324 L17.8381824,11.955324 L17.9162929,11.6566765 L17.9162929,11.6566765 C17.9928595,11.3748151 18.0762893,11.0976107 18.166627,10.824887 L18.2569551,10.556106 C18.3172693,10.3813197 18.3798055,10.2091313 18.4445662,10.0395418 L18.5342592,9.80988469 L18.5342592,9.80988469 L18.6037516,9.63875876 L18.6037516,9.63875876 L18.6748418,9.4694051 C18.7414975,9.31320363 18.8101822,9.15937045 18.8808982,9.00790635 L19.022683,8.71289826 L19.022683,8.71289826 L19.1479229,8.4658013 L19.1479229,8.4658013 C19.2186793,8.329543 19.2912215,8.19534499 19.3655447,8.06322077 L19.5209138,7.79441007 L19.5209138,7.79441007 L19.6576049,7.56943205 L19.6576049,7.56943205 L19.7988415,7.3473753 L19.7988415,7.3473753 L19.8971693,7.19859984 L19.8971693,7.19859984 L19.9747664,7.08437783 L19.9747664,7.08437783 L20.1446345,6.84358378 L20.1446345,6.84358378 L20.2598008,6.68713616 L20.2598008,6.68713616 L20.379032,6.53059973 L20.379032,6.53059973 L20.5191289,6.35334285 L20.5191289,6.35334285 L20.6310778,6.2166078 C20.8940366,5.89323404 21.1698449,5.5883222 21.458475,5.30191581 Z" id="Path"></path>
                    <path d="M5.60393177,8.11331886 L5.60393177,28.4200442 C5.60393177,29.6968663 4.58029633,30.7319352 3.31757802,30.7319352 L0.0325449464,30.7319352 L0.0325449464,8.11331886 L5.60393177,8.11331886 Z" id="Path"></path>
                </g>
            </g>
        </g>
    </g>
</svg>